<?xml version="1.0" encoding="UTF-8"?>
<svg id="Layer_1" data-name="Layer 1" xmlns="http://www.w3.org/2000/svg" viewBox="0 0 420 420">
  <defs>
    <style>
      .cls-1 {
        fill: #496a71;
      }
    </style>
  </defs>
  <path class="cls-1" d="m389.45,314.82c0,23.53-19.2,42.73-42.73,42.73h-193.85c-1.24.31-1.86.31-2.17,0l-119.22.31c3.1-1.55,11.77-7.43,20.75-16.72,17.03-17.65,34.06-47.07,11.46-79.58-1.86-2.48-3.41-4.96-4.95-7.12-15.79-27.25-9.29-47.38,0-67.51,6.19-12.7,13.62-25.39,16.72-39.95,8.36-36.85-23.23-68.44-25.08-69.98-4.95-6.81-11.77-11.77-19.82-14.86h255.16c13.62,0,26.01,5.57,34.99,14.55,8.98,8.98,14.55,21.37,14.55,34.99,0,16.72-8.67,31.9-22.61,41.5-52.33,36.23-119.53,51.71-124.17,52.64,13.31-1.55,37.78.62,42.11.93.62,0,.62.31.62.31,100.33,11.15,158.24,67.82,158.24,107.76Zm-165.67-74.63s-17.34-21.68-44.28-18.27c-36.23,4.95-30.04,39.64-6.19,55.74,26.32,18.27,59.15,36.23,41.49,65.96,54.19-3.72,43.35-62.55,8.98-103.43Zm-69.36-34.06c11.46-5.57,26.01-11.46,34.37-19.51,54.81-53.26,45.21-84.54,29.42-101.26-9.91-10.53-34.37-13.32-42.42,6.19-3.72,8.98-1.55,15.48,2.79,40.26,1.86,10.84-.93,23.84-5.26,35.92-7.12,20.13-18.27,37.47-18.89,38.4Z"/>
</svg>